<svg viewBox="0 0 25 25" xmlns="http://www.w3.org/2000/svg"><path d="m12.5.5a12 12 0 1 0 12 12 12 12 0 0 0 -12-12zm-10.975 12.5h4.489a20.83 20.83 0 0 0 .469 4.031h-4a10.924 10.924 0 0 1 -.958-4.031zm11.475-6.031v-5.417c1.734.339 3.32 2.417 4.222 5.417zm4.49 1a19.808 19.808 0 0 1 .5 4.031h-4.99v-4.031zm-5.49-6.417v5.417h-4.222c.902-3 2.488-5.078 4.222-5.417zm0 6.417v4.031h-4.987a19.808 19.808 0 0 1 .5-4.031zm-5.986 4.031h-4.489a10.924 10.924 0 0 1 .96-4.031h4a20.83 20.83 0 0 0 -.471 4.031zm1 1h4.986v4.031h-4.49a19.808 19.808 0 0 1 -.497-4.031zm4.986 5.031v5.417c-1.734-.339-3.32-2.417-4.222-5.417zm1 5.417v-5.417h4.222c-.902 3-2.488 5.078-4.222 5.417zm0-6.417v-4.031h4.987a19.808 19.808 0 0 1 -.5 4.031zm5.986-4.031h4.489a10.924 10.924 0 0 1 -.96 4.031h-4a20.83 20.83 0 0 0 .471-4.031zm0-1a20.83 20.83 0 0 0 -.469-4.031h4a10.924 10.924 0 0 1 .958 4.031zm3.014-5.031h-3.735a11.6 11.6 0 0 0 -2.665-5.018 11.007 11.007 0 0 1 6.4 5.018zm-12.6-5.018a11.6 11.6 0 0 0 -2.665 5.018h-3.735a11.007 11.007 0 0 1 6.4-5.018zm-6.4 16.08h3.735a11.6 11.6 0 0 0 2.665 5.018 11.007 11.007 0 0 1 -6.4-5.018zm12.6 5.018a11.6 11.6 0 0 0 2.665-5.018h3.735a11.007 11.007 0 0 1 -6.4 5.018z" fill-rule="evenodd"/></svg>